<mxfile host="www.draw.io" modified="2019-12-17T15:21:33.795Z" agent="Mozilla/5.0 (X11; Linux x86_64; rv:71.0) Gecko/20100101 Firefox/71.0" etag="WMs5_23eQ9-97hre5F2W" version="12.4.2" type="github" pages="1">
  <diagram id="v5j99fxaCt-rGzSb6MHj" name="Page-1">
    <mxGraphModel dx="1414" dy="768" grid="1" gridSize="10" guides="1" tooltips="1" connect="1" arrows="1" fold="1" page="1" pageScale="1" pageWidth="827" pageHeight="1169" math="0" shadow="0">
      <root>
        <mxCell id="0"/>
        <mxCell id="1" parent="0"/>
        <mxCell id="k-KoqyvBBs9smydsFZS7-17" style="edgeStyle=none;rounded=0;orthogonalLoop=1;jettySize=auto;html=1;endArrow=none;endFill=0;strokeWidth=1;" edge="1" parent="1" source="GjZFAESUipkXRsJWzybH-1" target="k-KoqyvBBs9smydsFZS7-12">
          <mxGeometry relative="1" as="geometry"/>
        </mxCell>
        <mxCell id="GjZFAESUipkXRsJWzybH-1" value="User" style="swimlane;fontStyle=1;align=center;verticalAlign=top;childLayout=stackLayout;horizontal=1;startSize=26;horizontalStack=0;resizeParent=1;resizeParentMax=0;resizeLast=0;collapsible=1;marginBottom=0;" parent="1" vertex="1">
          <mxGeometry x="425" y="86" width="190" height="78" as="geometry"/>
        </mxCell>
        <mxCell id="GjZFAESUipkXRsJWzybH-2" value="+ Username: String" style="text;strokeColor=none;fillColor=none;align=left;verticalAlign=top;spacingLeft=4;spacingRight=4;overflow=hidden;rotatable=0;points=[[0,0.5],[1,0.5]];portConstraint=eastwest;" parent="GjZFAESUipkXRsJWzybH-1" vertex="1">
          <mxGeometry y="26" width="190" height="26" as="geometry"/>
        </mxCell>
        <mxCell id="GjZFAESUipkXRsJWzybH-79" value="+ Password: String" style="text;strokeColor=none;fillColor=none;align=left;verticalAlign=top;spacingLeft=4;spacingRight=4;overflow=hidden;rotatable=0;points=[[0,0.5],[1,0.5]];portConstraint=eastwest;" parent="GjZFAESUipkXRsJWzybH-1" vertex="1">
          <mxGeometry y="52" width="190" height="26" as="geometry"/>
        </mxCell>
        <mxCell id="GjZFAESUipkXRsJWzybH-17" value="Strategy" style="swimlane;fontStyle=1;align=center;verticalAlign=top;childLayout=stackLayout;horizontal=1;startSize=26;horizontalStack=0;resizeParent=1;resizeParentMax=0;resizeLast=0;collapsible=1;marginBottom=0;" parent="1" vertex="1">
          <mxGeometry x="300" y="466" width="180" height="78" as="geometry"/>
        </mxCell>
        <mxCell id="k-KoqyvBBs9smydsFZS7-23" value="+ file_hash: String" style="text;strokeColor=none;fillColor=none;align=left;verticalAlign=top;spacingLeft=4;spacingRight=4;overflow=hidden;rotatable=0;points=[[0,0.5],[1,0.5]];portConstraint=eastwest;" vertex="1" parent="GjZFAESUipkXRsJWzybH-17">
          <mxGeometry y="26" width="180" height="26" as="geometry"/>
        </mxCell>
        <mxCell id="k-KoqyvBBs9smydsFZS7-24" value="+ file_path: String" style="text;strokeColor=none;fillColor=none;align=left;verticalAlign=top;spacingLeft=4;spacingRight=4;overflow=hidden;rotatable=0;points=[[0,0.5],[1,0.5]];portConstraint=eastwest;" vertex="1" parent="GjZFAESUipkXRsJWzybH-17">
          <mxGeometry y="52" width="180" height="26" as="geometry"/>
        </mxCell>
        <mxCell id="GjZFAESUipkXRsJWzybH-31" value="" style="group" parent="1" vertex="1" connectable="0">
          <mxGeometry x="320" y="416" as="geometry"/>
        </mxCell>
        <mxCell id="k-KoqyvBBs9smydsFZS7-7" style="rounded=0;orthogonalLoop=1;jettySize=auto;html=1;endArrow=block;endFill=0;strokeWidth=1;" edge="1" parent="1" source="k-KoqyvBBs9smydsFZS7-6" target="GjZFAESUipkXRsJWzybH-1">
          <mxGeometry relative="1" as="geometry"/>
        </mxCell>
        <mxCell id="k-KoqyvBBs9smydsFZS7-6" value="StandardUser" style="html=1;fontStyle=1" vertex="1" parent="1">
          <mxGeometry x="310" y="260" width="110" height="50" as="geometry"/>
        </mxCell>
        <mxCell id="k-KoqyvBBs9smydsFZS7-10" style="edgeStyle=none;rounded=0;orthogonalLoop=1;jettySize=auto;html=1;endArrow=block;endFill=0;strokeWidth=1;" edge="1" parent="1" source="k-KoqyvBBs9smydsFZS7-9" target="GjZFAESUipkXRsJWzybH-1">
          <mxGeometry relative="1" as="geometry"/>
        </mxCell>
        <mxCell id="k-KoqyvBBs9smydsFZS7-9" value="Administrator" style="html=1;fontStyle=1" vertex="1" parent="1">
          <mxGeometry x="540" y="260" width="110" height="50" as="geometry"/>
        </mxCell>
        <mxCell id="k-KoqyvBBs9smydsFZS7-12" value="AuthToken" style="swimlane;fontStyle=1;align=center;verticalAlign=top;childLayout=stackLayout;horizontal=1;startSize=26;horizontalStack=0;resizeParent=1;resizeParentMax=0;resizeLast=0;collapsible=1;marginBottom=0;" vertex="1" parent="1">
          <mxGeometry x="740" y="86" width="160" height="78" as="geometry"/>
        </mxCell>
        <mxCell id="k-KoqyvBBs9smydsFZS7-13" value="+ token: String" style="text;strokeColor=none;fillColor=none;align=left;verticalAlign=top;spacingLeft=4;spacingRight=4;overflow=hidden;rotatable=0;points=[[0,0.5],[1,0.5]];portConstraint=eastwest;" vertex="1" parent="k-KoqyvBBs9smydsFZS7-12">
          <mxGeometry y="26" width="160" height="26" as="geometry"/>
        </mxCell>
        <mxCell id="k-KoqyvBBs9smydsFZS7-16" value="+ expire_time: Instant" style="text;strokeColor=none;fillColor=none;align=left;verticalAlign=top;spacingLeft=4;spacingRight=4;overflow=hidden;rotatable=0;points=[[0,0.5],[1,0.5]];portConstraint=eastwest;" vertex="1" parent="k-KoqyvBBs9smydsFZS7-12">
          <mxGeometry y="52" width="160" height="26" as="geometry"/>
        </mxCell>
        <mxCell id="k-KoqyvBBs9smydsFZS7-18" value="1" style="text;html=1;align=center;verticalAlign=middle;resizable=0;points=[];;autosize=1;" vertex="1" parent="1">
          <mxGeometry x="617" y="104" width="20" height="20" as="geometry"/>
        </mxCell>
        <mxCell id="k-KoqyvBBs9smydsFZS7-19" value="0..*" style="text;html=1;align=center;verticalAlign=middle;resizable=0;points=[];;autosize=1;" vertex="1" parent="1">
          <mxGeometry x="699.76" y="104" width="40" height="20" as="geometry"/>
        </mxCell>
        <mxCell id="k-KoqyvBBs9smydsFZS7-26" value="Run" style="swimlane;fontStyle=1;align=center;verticalAlign=top;childLayout=stackLayout;horizontal=1;startSize=26;horizontalStack=0;resizeParent=1;resizeParentMax=0;resizeLast=0;collapsible=1;marginBottom=0;" vertex="1" parent="1">
          <mxGeometry x="570" y="460" width="160" height="52" as="geometry"/>
        </mxCell>
        <mxCell id="k-KoqyvBBs9smydsFZS7-27" value="+ field: type" style="text;strokeColor=none;fillColor=none;align=left;verticalAlign=top;spacingLeft=4;spacingRight=4;overflow=hidden;rotatable=0;points=[[0,0.5],[1,0.5]];portConstraint=eastwest;" vertex="1" parent="k-KoqyvBBs9smydsFZS7-26">
          <mxGeometry y="26" width="160" height="26" as="geometry"/>
        </mxCell>
      </root>
    </mxGraphModel>
  </diagram>
</mxfile>
